<?xml version="1.0" encoding="UTF-8"?>
<svg width="500" height="400" viewBox="0 0 500 400" fill="none" xmlns="http://www.w3.org/2000/svg">
    <!-- Background shape -->
    <path
        d="M250 350C350 350 420 280 420 200C420 120 350 50 250 50C150 50 80 120 80 200C80 280 150 350 250 350Z"
        fill="#E8E3FF" />

    <!-- Decorative elements -->
    <circle cx="120" cy="100" r="10" fill="#6C46D6" opacity="0.3" />
    <circle cx="400" cy="150" r="8" fill="#6C46D6" opacity="0.3" />
    <circle cx="380" cy="250" r="6" fill="#6C46D6" opacity="0.3" />
    <circle cx="150" cy="300" r="12" fill="#6C46D6" opacity="0.3" />

    <path d="M100 120L120 140M380 130L400 150M360 250L380 270M130 300L150 320" stroke="#6C46D6"
        opacity="0.5" stroke-width="2" />

    <!-- Speech bubbles -->
    <rect x="300" y="140" width="60" height="40" rx="10" fill="#6C46D6" opacity="0.2" />
    <rect x="220" y="100" width="80" height="50" rx="10" fill="#6C46D6" opacity="0.2" />
    <rect x="120" y="180" width="70" height="45" rx="10" fill="#6C46D6" opacity="0.2" />

    <!-- People illustrations -->

    <!-- Woman (left) -->
    <g transform="translate(140, 230)">
        <!-- Head -->
        <circle cx="0" cy="-50" r="25" fill="#4A3B6B" />
        <!-- Hair -->
        <path d="M-15 -70 C-25 -60 -30 -40 -20 -30 C-15 -25 -5 -22 0 -25" fill="#2D1C4A" />
        <circle cx="0" cy="-65" r="12" fill="#2D1C4A" />
        <!-- Face -->
        <circle cx="-8" cy="-50" r="2" fill="#222" /> <!-- eye -->
        <circle cx="8" cy="-50" r="2" fill="#222" /> <!-- eye -->
        <path d="M-5 -40 C-2 -38 2 -38 5 -40" stroke="#222" stroke-width="1.5" fill="none" /> <!--
        mouth -->
        <path d="M0 -45 L4 -45" stroke="#222" stroke-width="1.5" /> <!-- nose -->
        <!-- Neck -->
        <rect x="-5" y="-25" width="10" height="10" fill="#B996DC" />
        <!-- Body -->
        <path d="M-30 10 L-20 -15 L20 -15 L30 10" fill="#B996DC" />
        <rect x="-20" y="-15" width="40" height="55" fill="#B996DC" />
        <!-- Arms -->
        <rect x="-40" y="-5" width="20" height="10" rx="5" fill="#B996DC" />
        <rect x="20" y="-5" width="20" height="10" rx="5" fill="#B996DC" />
        <!-- Hand wave -->
        <path d="M-50 -15 C-45 -25 -40 -25 -40 -5" stroke="#B996DC" stroke-width="10"
            stroke-linecap="round" />
        <!-- Skirt -->
        <path d="M-20 40 L-30 80 L30 80 L20 40" fill="#2D1C4A" />
        <!-- Necklace -->
        <circle cx="0" cy="-18" r="3" fill="#FFD700" />
    </g>

    <!-- Man (middle) -->
    <g transform="translate(250, 230)">
        <!-- Head -->
        <circle cx="0" cy="-50" r="25" fill="#4A3B6B" />
        <!-- Hair & Beard -->
        <path d="M-20 -60 L-15 -70 L15 -70 L20 -60" fill="#2D1C4A" />
        <path d="M-20 -60 C-25 -50 -25 -40 -20 -35 C-15 -30 -10 -30 -15 -35" fill="#2D1C4A" />
        <path d="M20 -60 C25 -50 25 -40 20 -35 C15 -30 10 -30 15 -35" fill="#2D1C4A" />
        <path d="M-10 -30 C-5 -20 5 -20 10 -30" fill="#2D1C4A" />
        <!-- Face -->
        <circle cx="-8" cy="-50" r="2" fill="#222" /> <!-- eye -->
        <circle cx="8" cy="-50" r="2" fill="#222" /> <!-- eye -->
        <path d="M-5 -40 C-2 -38 2 -38 5 -40" stroke="#222" stroke-width="1.5" fill="none" /> <!--
        mouth -->
        <path d="M0 -45 L4 -45" stroke="#222" stroke-width="1.5" /> <!-- nose -->
        <!-- Neck -->
        <rect x="-5" y="-25" width="10" height="10" fill="#6C46D6" />
        <!-- Body -->
        <rect x="-30" y="-15" width="60" height="65" fill="#6C46D6" />
        <!-- Arms -->
        <rect x="-40" y="-5" width="10" height="10" rx="5" fill="#6C46D6" />
        <rect x="30" y="-5" width="10" height="10" rx="5" fill="#6C46D6" />
        <!-- Pants -->
        <rect x="-30" y="50" width="25" height="30" fill="#2D1C4A" />
        <rect x="5" y="50" width="25" height="30" fill="#2D1C4A" />
        <!-- Pattern on shirt -->
        <path d="M-20 0 L-15 5 L-20 10 L-15 15" stroke="#E8E3FF" stroke-width="1" />
        <path d="M-10 -10 L-5 -5 L-10 0 L-5 5" stroke="#E8E3FF" stroke-width="1" />
        <path d="M0 -15 L5 -10 L0 -5 L5 0" stroke="#E8E3FF" stroke-width="1" />
        <path d="M10 -10 L15 -5 L10 0 L15 5" stroke="#E8E3FF" stroke-width="1" />
        <path d="M20 0 L25 5 L20 10 L25 15" stroke="#E8E3FF" stroke-width="1" />
    </g>

    <!-- Kid (right) -->
    <g transform="translate(330, 250)">
        <!-- Head -->
        <circle cx="0" cy="-50" r="20" fill="#4A3B6B" />
        <!-- Hair -->
        <path d="M-15 -65 L15 -65 L15 -50 L-15 -50 Z" fill="#2D1C4A" />
        <!-- Glasses -->
        <rect x="-12" y="-52" width="10" height="6" rx="3" stroke="#333" stroke-width="1"
            fill="none" />
        <rect x="2" y="-52" width="10" height="6" rx="3" stroke="#333" stroke-width="1" fill="none" />
        <path d="M-2 -50 L2 -50" stroke="#333" stroke-width="1" />
        <!-- Face -->
        <circle cx="-7" cy="-50" r="1.5" fill="#222" /> <!-- eye -->
        <circle cx="7" cy="-50" r="1.5" fill="#222" /> <!-- eye -->
        <path d="M-3 -42 C-1 -40 1 -40 3 -42" stroke="#222" stroke-width="1" fill="none" /> <!--
        mouth -->
        <!-- Neck -->
        <rect x="-3" y="-30" width="6" height="5" fill="#B593DE" />
        <!-- Body -->
        <rect x="-20" y="-25" width="40" height="45" fill="#B593DE" />
        <!-- Arms -->
        <rect x="-30" y="-15" width="10" height="8" rx="4" fill="#B593DE" />
        <rect x="20" y="-15" width="10" height="8" rx="4" fill="#B593DE" />
        <!-- Hand wave -->
        <path d="M35 -15 C30 -20 25 -20 20 -15" stroke="#B593DE" stroke-width="8"
            stroke-linecap="round" />
        <!-- Pants -->
        <rect x="-20" y="20" width="17" height="20" fill="#6C46D6" />
        <rect x="3" y="20" width="17" height="20" fill="#6C46D6" />
        <!-- Stripes on shirt -->
        <rect x="-20" y="-20" width="40" height="5" fill="#6C46D6" />
        <rect x="-20" y="-5" width="40" height="5" fill="#6C46D6" />
        <rect x="-20" y="10" width="40" height="5" fill="#6C46D6" />
    </g>

    <!-- Laptop -->
    <g transform="translate(250, 300)">
        <!-- Base -->
        <rect x="-40" y="0" width="80" height="10" rx="2" fill="#333" />
        <!-- Screen -->
        <rect x="-35" y="-40" width="70" height="40" rx="2" fill="#333" />
        <rect x="-32" y="-37" width="64" height="34" rx="1" fill="#111" />
        <rect x="-30" y="-35" width="60" height="30" fill="#222" />
    </g>
</svg>