<svg xmlns="http://www.w3.org/2000/svg" viewBox="0 0 800 500">
    <!-- Background elements -->
    <circle cx="150" cy="100" r="70" fill="#9b6dff" opacity="0.4" />
    <circle cx="650" cy="450" r="100" fill="#9b6dff" opacity="0.2" />
    <path d="M0,350 Q200,300 400,350 Q600,400 800,350 L800,500 L0,500 Z" fill="#9b6dff"
        opacity="0.1" />

    <!-- Dotted line path -->
    <path d="M50,150 C150,50 250,200 350,100 C450,0 550,100 650,50" fill="none" stroke="#ffffff"
        stroke-width="2" stroke-dasharray="5,5" />

    <!-- Business man illustration -->
    <g transform="translate(250, 200)">
        <!-- Suit -->
        <rect x="-40" y="-90" width="80" height="150" rx="5" fill="#333333" />
        <rect x="-45" y="-90" width="45" height="150" rx="0" fill="#444444" />

        <!-- Shirt and tie -->
        <rect x="-30" y="-80" width="60" height="80" rx="3" fill="#ffffff" />
        <path d="M0,-80 L-10,-40 L0,0 L10,-40 Z" fill="#ffa500" />

        <!-- Head -->
        <circle cx="0" cy="-110" r="30" fill="#ffd699" />

        <!-- Hair -->
        <path d="M-25,-125 C-20,-140 20,-140 25,-125 L25,-110 C25,-95 -25,-95 -25,-110 Z"
            fill="#333333" />

        <!-- Face features (simplified) -->
        <path d="M-10,-110 C-7,-105 7,-105 10,-110" fill="none" stroke="#333333" stroke-width="2" />
    </g>

    <!-- Business woman illustration -->
    <g transform="translate(400, 250)">
        <!-- Suit/Dress -->
        <rect x="-35" y="-80" width="70" height="140" rx="5" fill="#6c46d6" />

        <!-- Head -->
        <circle cx="0" cy="-100" r="30" fill="#ffd699" />

        <!-- Hair -->
        <path d="M-25,-115 C-20,-130 20,-130 25,-115 L25,-100 L-25,-100 Z" fill="#222222" />
        <path d="M-20,-100 L-25,-70 C-25,-70 -15,-75 0,-75 C15,-75 25,-70 25,-70 L20,-100"
            fill="#222222" />

        <!-- Face features (simplified) -->
        <path d="M-10,-100 C-7,-95 7,-95 10,-100" fill="none" stroke="#333333" stroke-width="2" />
    </g>

    <!-- Yellow folders/documents -->
    <rect x="200" y="150" width="80" height="60" rx="5" fill="#FFD700" />
    <rect x="370" y="200" width="80" height="60" rx="5" fill="#FFD700" />

    <!-- Small people illustrations -->
    <g transform="translate(100, 200) scale(0.5)">
        <circle cx="0" cy="-20" r="20" fill="#6c46d6" />
        <rect x="-10" y="0" width="20" height="40" rx="5" fill="#6c46d6" />
        <rect x="-25" y="0" width="10" height="40" rx="5" fill="#6c46d6" />
        <rect x="15" y="0" width="10" height="40" rx="5" fill="#6c46d6" />
    </g>

    <g transform="translate(170, 170) scale(0.5)">
        <circle cx="0" cy="-20" r="20" fill="#6c46d6" />
        <rect x="-10" y="0" width="20" height="40" rx="5" fill="#6c46d6" />
        <rect x="-25" y="0" width="10" height="40" rx="5" fill="#6c46d6" />
        <rect x="15" y="0" width="10" height="40" rx="5" fill="#6c46d6" />
    </g>

    <g transform="translate(470, 150) scale(0.5)">
        <circle cx="0" cy="-20" r="20" fill="#6c46d6" />
        <rect x="-10" y="0" width="20" height="40" rx="5" fill="#6c46d6" />
        <rect x="-25" y="0" width="10" height="40" rx="5" fill="#6c46d6" />
        <rect x="15" y="0" width="10" height="40" rx="5" fill="#6c46d6" />
    </g>

    <!-- Gear icons -->
    <g transform="translate(150, 250)">
        <circle cx="0" cy="0" r="30" fill="#4a86e8" />
        <circle cx="0" cy="0" r="15" fill="white" />

        <!-- Gear teeth -->
        <rect x="-5" y="-40" width="10" height="15" fill="#4a86e8" />
        <rect x="-5" y="25" width="10" height="15" fill="#4a86e8" />
        <rect x="-40" y="-5" width="15" height="10" fill="#4a86e8" />
        <rect x="25" y="-5" width="15" height="10" fill="#4a86e8" />

        <!-- Diagonal teeth -->
        <rect x="-30" y="-30" width="12" height="10" transform="rotate(45)" fill="#4a86e8" />
        <rect x="20" y="-30" width="12" height="10" transform="rotate(45)" fill="#4a86e8" />
        <rect x="-30" y="20" width="12" height="10" transform="rotate(45)" fill="#4a86e8" />
        <rect x="20" y="20" width="12" height="10" transform="rotate(45)" fill="#4a86e8" />
    </g>

    <!-- Charts/documents -->
    <g transform="translate(80, 130)">
        <rect x="0" y="0" width="60" height="80" rx="5" fill="#ffcc00" />
        <line x1="10" y1="20" x2="50" y2="20" stroke="#333" stroke-width="2" />
        <line x1="10" y1="40" x2="50" y2="40" stroke="#333" stroke-width="2" />
        <line x1="10" y1="60" x2="50" y2="60" stroke="#333" stroke-width="2" />
    </g>

    <!-- Decorative leaf elements -->
    <path d="M320,120 C350,100 380,120 370,150 C360,180 330,200 300,170 C270,140 290,100 320,120"
        fill="#80cc28" />
    <path d="M400,300 C420,280 450,290 450,320 C450,350 420,370 390,350 C360,330 380,290 400,300"
        fill="#80cc28" />

    <!-- Arrows -->
    <path d="M100,80 L130,60" stroke="white" stroke-width="2" marker-end="url(#arrowhead)" />
    <path d="M500,200 L530,180" stroke="white" stroke-width="2" marker-end="url(#arrowhead)" />

    <!-- Arrow marker definition -->
    <defs>
        <marker id="arrowhead" markerWidth="10" markerHeight="7" refX="0" refY="3.5" orient="auto">
            <polygon points="0 0, 10 3.5, 0 7" fill="white" />
        </marker>
    </defs>
</svg>