<?xml version="1.0" encoding="UTF-8"?>
<svg width="600" height="400" viewBox="0 0 600 400" fill="none" xmlns="http://www.w3.org/2000/svg">
    <!-- Background elements -->
    <circle cx="500" cy="80" r="15" fill="#6C46D6" opacity="0.2" />
    <circle cx="300" cy="100" r="8" fill="#6C46D6" opacity="0.1" />
    <circle cx="580" cy="150" r="6" fill="#6C46D6" opacity="0.2" />
    <circle cx="520" cy="230" r="10" fill="#6C46D6" opacity="0.1" />
    <circle cx="450" cy="80" r="5" fill="#6C46D6" opacity="0.2" />

    <!-- Decorative dashed circle -->
    <circle cx="780" cy="200" r="180" stroke="#000" stroke-width="1" stroke-dasharray="5 5"
        opacity="0.1" />

    <!-- Desk -->
    <rect x="100" y="280" width="400" height="10" rx="2" fill="#E0E0E0" />

    <!-- Woman sitting -->
    <g transform="translate(200, 280)">
        <!-- Chair -->
        <rect x="-30" y="-70" width="60" height="10" rx="2" fill="#DDD" />
        <rect x="-25" y="-60" width="50" height="70" rx="4" fill="#EEE" />

        <!-- Woman's body -->
        <rect x="-15" y="-60" width="30" height="40" rx="10" fill="#6C46D6" />

        <!-- Woman's legs -->
        <path d="M-15 -20 L-40 30 L-30 30 L5 -20" fill="#6C46D6" />
        <path d="M15 -20 L50 20 L40 30 L-5 -20" fill="#6C46D6" />

        <!-- Woman's shoes -->
        <rect x="-50" y="25" width="20" height="10" rx="5" fill="#333" />
        <rect x="30" y="25" width="20" height="10" rx="5" fill="#333" />

        <!-- Woman's head -->
        <circle cx="0" cy="-80" r="20" fill="#333" />
        <path d="M-15 -90 L-10 -70 L10 -70 L15 -90 Z" fill="#333" />
        <path d="M-8 -80 C-6 -78 -4 -78 -2 -80" stroke="#FFF" fill="none" />
        <path d="M2 -80 C4 -78 6 -78 8 -80" stroke="#FFF" fill="none" />

        <!-- Woman's arms -->
        <rect x="-40" y="-50" width="25" height="8" rx="4" fill="#6C46D6" />
        <rect x="15" y="-50" width="25" height="8" rx="4" fill="#6C46D6" />
    </g>

    <!-- Plant -->
    <g transform="translate(400, 280)">
        <rect x="-15" y="-40" width="30" height="40" rx="2" fill="#DDD" />

        <!-- Leaves -->
        <path d="M0 -50 C10 -70 30 -60 20 -40" fill="#6C46D6" opacity="0.5" />
        <path d="M0 -50 C-10 -70 -30 -60 -20 -40" fill="#6C46D6" opacity="0.5" />
        <path d="M0 -60 C10 -80 25 -70 15 -50" fill="#6C46D6" opacity="0.5" />
        <path d="M0 -60 C-10 -80 -25 -70 -15 -50" fill="#6C46D6" opacity="0.5" />
    </g>

    <!-- Left person standing -->
    <g transform="translate(150, 240)">
        <!-- Body -->
        <rect x="-20" y="-80" width="40" height="70" rx="5" fill="#6C46D6" />

        <!-- Legs -->
        <rect x="-15" y="-10" width="10" height="50" fill="#333" />
        <rect x="5" y="-10" width="10" height="50" fill="#333" />

        <!-- Shoes -->
        <rect x="-20" y="40" width="15" height="10" rx="2" fill="#111" />
        <rect x="5" y="40" width="15" height="10" rx="2" fill="#111" />

        <!-- Head -->
        <circle cx="0" cy="-100" r="20" fill="#333" />

        <!-- Face -->
        <circle cx="-5" cy="-102" r="2" fill="#FFF" />
        <circle cx="5" cy="-102" r="2" fill="#FFF" />
        <path d="M-6 -95 C-3 -93 3 -93 6 -95" stroke="#FFF" fill="none" />

        <!-- Arms -->
        <rect x="20" y="-75" width="40" height="10" rx="5" fill="#6C46D6" />
        <rect x="-60" y="-65" width="40" height="10" rx="5" fill="#6C46D6" />
    </g>

    <!-- Right person standing -->
    <g transform="translate(350, 240)">
        <!-- Body -->
        <rect x="-20" y="-80" width="40" height="70" rx="5" fill="#6C46D6" />

        <!-- Legs -->
        <rect x="-15" y="-10" width="10" height="50" fill="#333" />
        <rect x="5" y="-10" width="10" height="50" fill="#333" />

        <!-- Shoes -->
        <rect x="-20" y="40" width="15" height="10" rx="2" fill="#111" />
        <rect x="5" y="40" width="15" height="10" rx="2" fill="#111" />

        <!-- Head -->
        <circle cx="0" cy="-100" r="20" fill="#333" />

        <!-- Face -->
        <circle cx="-5" cy="-102" r="2" fill="#FFF" />
        <circle cx="5" cy="-102" r="2" fill="#FFF" />
        <path d="M-6 -95 C-3 -93 3 -93 6 -95" stroke="#FFF" fill="none" />

        <!-- Arms -->
        <rect x="-60" y="-75" width="40" height="10" rx="5" fill="#6C46D6" />
        <rect x="20" y="-65" width="40" height="10" rx="5" fill="#6C46D6" />
    </g>

    <!-- Laptop -->
    <g transform="translate(250, 230)">
        <rect x="-30" y="-15" width="60" height="5" rx="1" fill="#333" />
        <rect x="-25" y="-40" width="50" height="25" rx="2" fill="#333" />
        <rect x="-22" y="-37" width="44" height="19" fill="#6C46D6" opacity="0.2" />
    </g>

    <!-- Speech bubble / interface box -->
    <g transform="translate(170, 150)">
        <rect x="-40" y="-20" width="80" height="40" rx="8" fill="#F8F8F8" stroke="#DDD" />

        <!-- Cloud icon -->
        <circle cx="-20" cy="0" r="10" fill="#6C46D6" opacity="0.3" />
        <path d="M-20 -5 L-15 0 L-20 5" stroke="#6C46D6" stroke-width="2" fill="none" />
        <path d="M-25 0 L-15 0" stroke="#6C46D6" stroke-width="2" />

        <!-- Lines -->
        <rect x="0" y="-10" width="30" height="2" rx="1" fill="#DDD" />
        <rect x="0" y="0" width="30" height="2" rx="1" fill="#DDD" />
        <rect x="0" y="10" width="20" height="2" rx="1" fill="#DDD" />
    </g>
</svg>