<?xml version="1.0" encoding="UTF-8"?>
<svg width="400" height="350" viewBox="0 0 400 350" fill="none" xmlns="http://www.w3.org/2000/svg">
    <!-- Circle base -->
    <circle cx="200" cy="230" r="120" fill="#F5F5F5" opacity="0.8" />

    <!-- Laptop -->
    <g transform="translate(120, 140)">
        <!-- Laptop base -->
        <rect x="0" y="80" width="160" height="10" rx="2" fill="#333" />
        <!-- Laptop screen -->
        <rect x="20" y="0" width="120" height="80" rx="4" fill="#333" />
        <rect x="24" y="4" width="112" height="72" rx="2" fill="#FFFFFF" />

        <!-- Screen content - graph -->
        <rect x="34" y="14" width="92" height="52" fill="#F8F8F8" />

        <!-- Bar chart -->
        <rect x="44" y="46" width="10" height="10" fill="#6C46D6" />
        <rect x="64" y="36" width="10" height="20" fill="#6C46D6" />
        <rect x="84" y="26" width="10" height="30" fill="#6C46D6" />
        <rect x="104" y="16" width="10" height="40" fill="#6C46D6" />

        <!-- Line chart -->
        <path d="M44 26 L64 36 L84 16 L104 26" stroke="#FF6B6B" stroke-width="2" />

        <!-- Header bar -->
        <rect x="34" y="14" width="92" height="6" fill="#6C46D6" opacity="0.2" />
    </g>

    <!-- People -->
    <!-- Character 1 -->
    <g transform="translate(220, 180)">
        <!-- Head -->
        <circle cx="0" cy="0" r="12" fill="#6A4C93" />
        <!-- Body -->
        <rect x="-8" y="12" width="16" height="25" fill="#613F8F" />
        <!-- Arms -->
        <rect x="-18" y="15" width="10" height="5" rx="2" fill="#613F8F" />
        <rect x="8" y="15" width="20" height="5" rx="2" fill="#613F8F" />
        <!-- Legs -->
        <rect x="-8" y="37" width="6" height="20" fill="#4A2E78" />
        <rect x="2" y="37" width="6" height="20" fill="#4A2E78" />
    </g>

    <!-- Character 2 -->
    <g transform="translate(270, 220)">
        <!-- Head -->
        <circle cx="0" cy="0" r="12" fill="#333" />
        <!-- Body -->
        <rect x="-8" y="12" width="16" height="25" fill="#444" />
        <!-- Arms -->
        <rect x="-18" y="15" width="10" height="5" rx="2" fill="#444" />
        <rect x="8" y="15" width="10" height="5" rx="2" fill="#444" />
        <!-- Legs -->
        <rect x="-8" y="37" width="6" height="20" fill="#222" />
        <rect x="2" y="37" width="6" height="20" fill="#222" />
    </g>

    <!-- Chat bubbles -->
    <rect x="240" y="140" width="40" height="30" rx="10" fill="#6C46D6" opacity="0.3" />
    <rect x="190" y="160" width="30" height="20" rx="8" fill="#6C46D6" opacity="0.2" />

    <!-- Coins/Purple elements -->
    <circle cx="300" cy="260" r="15" fill="#6C46D6" opacity="0.7" />
    <circle cx="320" cy="270" r="15" fill="#6C46D6" opacity="0.5" />
    <circle cx="340" cy="260" r="15" fill="#6C46D6" opacity="0.3" />

    <!-- Arrow icon -->
    <g transform="translate(340, 100)">
        <rect x="0" y="0" width="30" height="30" rx="5" fill="#6C46D6" opacity="0.7" />
        <path d="M15 5 L15 25 M5 15 L25 15 M15 5 L25 15 L15 25" stroke="white" stroke-width="2" />
    </g>

    <!-- Chat icon -->
    <g transform="translate(290, 120)">
        <rect x="0" y="0" width="30" height="30" rx="5" fill="#6C46D6" opacity="0.5" />
        <rect x="5" y="10" width="20" height="15" rx="3" stroke="white" stroke-width="1.5"
            fill="none" />
        <path d="M10 15 L20 15 M10 20 L15 20" stroke="white" stroke-width="1.5" />
    </g>
</svg>