<svg xmlns="http://www.w3.org/2000/svg" viewBox="0 0 800 600">
    <!-- Background elements -->
    <path d="M400,550 Q600,500 700,400 T800,200 L800,600 L0,600 L0,500 Q200,600 400,550"
        fill="#f0f2ff" opacity="0.5" />
    <circle cx="650" cy="300" r="150" fill="#f0f2ff" />

    <!-- Tablet device -->
    <rect x="500" y="150" width="180" height="250" rx="10" ry="10" fill="#fac24a" />
    <rect x="510" y="160" width="160" height="230" rx="5" ry="5" fill="#7e57ff" />
    <circle cx="590" cy="155" r="3" fill="#333" />

    <!-- Document on tablet -->
    <rect x="525" y="180" width="130" height="25" rx="3" ry="3" fill="#d8bbff" />
    <rect x="525" y="215" width="130" height="25" rx="3" ry="3" fill="#d8bbff" />
    <rect x="525" y="250" width="130" height="25" rx="3" ry="3" fill="#d8bbff" />
    <rect x="525" y="285" width="130" height="25" rx="3" ry="3" fill="#d8bbff" />
    <rect x="525" y="320" width="130" height="25" rx="3" ry="3" fill="#d8bbff" />

    <!-- Man character -->
    <g transform="translate(570, 450)">
        <!-- Body -->
        <path d="M-30,-50 L-40,50 L40,50 L30,-50 Z" fill="#ff6b7a" />

        <!-- Head -->
        <circle cx="0" cy="-75" r="25" fill="#ffd2a5" />

        <!-- Hair -->
        <path d="M-20,-85 C-25,-100 25,-100 20,-85 L20,-65 L-20,-65 Z" fill="#333" />

        <!-- Arms - left arm holding folder -->
        <path d="M-30,-30 L-60,10 L-50,20 L-20,-20 Z" fill="#ff6b7a" />

        <!-- Yellow folder in hand -->
        <rect x="-90" y="0" width="40" height="30" rx="3" ry="3" fill="#fac24a" />

        <!-- Legs -->
        <rect x="-30" y="50" width="20" height="50" rx="5" ry="5" fill="#333" />
        <rect x="10" y="50" width="20" height="50" rx="5" ry="5" fill="#333" />
    </g>

    <!-- Woman character -->
    <g transform="translate(680, 410)">
        <!-- Body -->
        <path d="M-25,-110 L-35,0 L35,0 L25,-110 Z" fill="#ffffff" />

        <!-- Head -->
        <circle cx="0" cy="-130" r="25" fill="#ffd2a5" />

        <!-- Hair -->
        <path
            d="M-20,-145 C-25,-165 25,-165 20,-145 L25,-125 C30,-115 30,-90 20,-85 L15,-120 L-15,-120 L-20,-85 C-30,-90 -30,-115 -25,-125 Z"
            fill="#5e2ca5" />

        <!-- Arms - right arm pointing at tablet -->
        <path d="M25,-90 L60,-50 L50,-40 L15,-80 Z" fill="#ffffff" />

        <!-- Hand pointing -->
        <circle cx="55" cy="-45" r="8" fill="#ffd2a5" />

        <!-- Legs -->
        <rect x="-20" y="0" width="15" height="50" rx="5" ry="5" fill="#5e2ca5" />
        <rect x="5" y="0" width="15" height="50" rx="5" ry="5" fill="#5e2ca5" />
    </g>
</svg>