<svg xmlns="http://www.w3.org/2000/svg" viewBox="0 0 1000 500">
    <!-- Background is transparent since the component background is already purple -->

    <!-- Left side illustration area -->
    <g transform="translate(50, 50)">
        <!-- Decorative leaves -->
        <path d="M50,50 C80,30 120,40 130,80 C140,120 110,150 70,140 C30,130 20,70 50,50"
            fill="#ee6a7c" />
        <path
            d="M380,320 C410,300 450,310 460,350 C470,390 440,420 400,410 C360,400 350,340 380,320"
            fill="#ee6a7c" />
        <path d="M120,280 C150,260 190,270 200,310 C210,350 180,380 140,370 C100,360 90,300 120,280"
            fill="#ee6a7c" />

        <!-- Device screen (pink) -->
        <rect x="150" y="100" width="280" height="200" rx="15" ry="15" fill="#ff6b9b" />

        <!-- Form mockup on screen -->
        <rect x="180" y="130" width="220" height="40" rx="5" ry="5" fill="#ffac30" />
        <rect x="180" y="180" width="220" height="90" rx="5" ry="5" fill="rgba(255,255,255,0.7)" />

        <!-- Person sitting on top -->
        <g transform="translate(350, 70)">
            <!-- Body -->
            <rect x="-15" y="10" width="30" height="40" rx="10" ry="10" fill="#4a86e8" />
            <!-- Head -->
            <circle cx="0" cy="0" r="15" fill="#ffd699" />
            <!-- Hair -->
            <path d="M-15,-5 C-20,-15 -5,-25 5,-25 C15,-25 20,-15 15,-5 L15,0 L-15,0 Z"
                fill="#873600" />
            <!-- Ponytail -->
            <path d="M15,-10 C25,-5 25,10 15,15" stroke="#873600" stroke-width="8" fill="none" />
            <!-- Laptop -->
            <rect x="-20" y="30" width="40" height="25" rx="2" ry="2" fill="#333" />
            <rect x="-20" y="30" width="40" height="20" rx="2" ry="2" fill="#555" />
        </g>

        <!-- Person standing below -->
        <g transform="translate(240, 280)">
            <!-- Body -->
            <rect x="-15" y="20" width="30" height="50" rx="10" ry="10" fill="#4a86e8" />
            <!-- Head -->
            <circle cx="0" cy="0" r="15" fill="#ffd699" />
            <!-- Hair -->
            <path d="M-15,-5 C-20,-15 -5,-25 5,-25 C15,-25 20,-15 15,-5 L15,0 L-15,0 Z"
                fill="#873600" />
            <!-- Ponytail -->
            <path d="M15,-10 C25,-5 25,10 15,15" stroke="#873600" stroke-width="8" fill="none" />
            <!-- Arms reaching up -->
            <path d="M-15,30 C-30,0 -40,-20 -20,-10" stroke="#4a86e8" stroke-width="8" fill="none" />
            <path d="M15,30 C30,0 40,-20 20,-10" stroke="#4a86e8" stroke-width="8" fill="none" />
        </g>

        <!-- Speech bubble -->
        <g transform="translate(320, 40)">
            <rect x="-30" y="-15" width="60" height="30" rx="10" ry="10" fill="#ffdd57" />
            <path d="M-15,15 L-5,30 L5,15" fill="#ffdd57" />
            <line x1="-15" y1="0" x2="15" y2="0" stroke="#f5f5f5" stroke-width="3" />
            <line x1="-10" y1="-7" x2="10" y2="-7" stroke="#f5f5f5" stroke-width="3" />
        </g>

        <!-- Gear icon -->
        <g transform="translate(400, 150)">
            <circle cx="0" cy="0" r="20" fill="#dddddd" />
            <circle cx="0" cy="0" r="10" fill="#ffffff" />
            <path d="M0,-25 L5,-20 L-5,-20 Z" fill="#dddddd" />
            <path d="M0,25 L5,20 L-5,20 Z" fill="#dddddd" />
            <path d="M-25,0 L-20,5 L-20,-5 Z" fill="#dddddd" />
            <path d="M25,0 L20,5 L20,-5 Z" fill="#dddddd" />
            <path d="M-18,-18 L-13,-13 L-23,-3 Z" fill="#dddddd" />
            <path d="M18,18 L13,13 L23,3 Z" fill="#dddddd" />
            <path d="M-18,18 L-13,13 L-23,3 Z" fill="#dddddd" />
            <path d="M18,-18 L13,-13 L23,-3 Z" fill="#dddddd" />
        </g>

        <!-- Additional laptop screen edge -->
        <rect x="120" y="90" width="340" height="10" rx="5" ry="5" fill="#4a86e8" />
    </g>
</svg>